HIERARCHY
ROOT Hips
{
	OFFSET 0.00000 0.00000 0.00000
	CHANNELS 6 Xposition Yposition Zposition Zrotation Yrotation Xrotation 
	JOINT LHipJoint
	{
		OFFSET 0 0 0
		CHANNELS 3 Zrotation Yrotation Xrotation
		JOINT LeftHip
		{
			OFFSET 3.13874 -1.57224 1.49786
			CHANNELS 3 Zrotation Yrotation Xrotation
			JOINT LeftKnee
			{
				OFFSET 2.10955 -5.79594 0.00000
				CHANNELS 3 Zrotation Yrotation Xrotation
				JOINT LeftAnkle
				{
					OFFSET 2.41843 -6.64458 0.00000
					CHANNELS 3 Zrotation Yrotation Xrotation
					JOINT LeftToe
					{
						OFFSET 0.04713 -0.12948 1.66229
						CHANNELS 3 Zrotation Yrotation Xrotation
						End Site
						{
							OFFSET 0.00000 -0.00000 0.85167
						}
					}
				}
			}
		}
	}
	JOINT RHipJoint
	{
		OFFSET 0 0 0
		CHANNELS 3 Zrotation Yrotation Xrotation
		JOINT RightHip
		{
			OFFSET -3.13988 -1.57224 1.49786
			CHANNELS 3 Zrotation Yrotation Xrotation
			JOINT RightKnee
			{
				OFFSET -2.15006 -5.90725 0.00000
				CHANNELS 3 Zrotation Yrotation Xrotation
				JOINT RightAnkle
				{
					OFFSET -2.34496 -6.44273 0.00000
					CHANNELS 3 Zrotation Yrotation Xrotation
					JOINT RightToe
					{
						OFFSET -0.08699 -0.23900 1.55223
						CHANNELS 3 Zrotation Yrotation Xrotation
						End Site
						{
							OFFSET -0.00000 -0.00000 0.80281
						}
					}
				}
			}
		}
	}
	JOINT lowerback
	{
		OFFSET 0 0 0
		CHANNELS 3 Zrotation Yrotation Xrotation
		JOINT Chest
		{
			OFFSET 0.01292 1.96517 -0.16495
			CHANNELS 3 Zrotation Yrotation Xrotation
			JOINT Chest2
			{
				OFFSET 0.02122 1.88666 0.19706
				CHANNELS 3 Zrotation Yrotation Xrotation
				JOINT lowerneck
				{
					OFFSET 0 0 0
					CHANNELS 3 Zrotation Yrotation Xrotation
					JOINT Neck
					{
						OFFSET -0.01683 1.81591 0.07903
						CHANNELS 3 Zrotation Yrotation Xrotation
						JOINT Head
						{
							OFFSET 0.00815 1.74013 -0.47700
							CHANNELS 3 Zrotation Yrotation Xrotation
							End Site
							{
								OFFSET -0.00204 1.83225 -0.16933
							}
						}
					}
				}
				JOINT LeftCollar
				{
					OFFSET 0 0 0
					CHANNELS 3 Zrotation Yrotation Xrotation
					JOINT LeftShoulder
					{
						OFFSET 3.38482 1.41533 0.19802
CHANNELS 3 Zrotation Xrotation Yrotation
						JOINT LeftElbow
						{
OFFSET 0 -4.327120 0.000000
CHANNELS 3 Zrotation Xrotation Yrotation
							JOINT LeftWrist
							{
OFFSET 0 -3.285870 -0.000000
CHANNELS 3 Zrotation Xrotation Yrotation
								JOINT lhand
								{
									OFFSET 0 0 0
CHANNELS 3 Zrotation Xrotation Yrotation
									JOINT LFingers
									{
OFFSET 0 -0.433160 -0.000000
CHANNELS 3 Zrotation Xrotation Yrotation
										End Site
										{
OFFSET 0 -0.349220 -0.000000
										}
									}
								}
								JOINT LThumb
								{
OFFSET 0 0.000000 0.000000
CHANNELS 3 Zrotation Xrotation Yrotation
									End Site
									{
OFFSET 0 -0.354560 0.354560
									}
								}
							}
						}
					}
				}
				JOINT RightCollar
				{
					OFFSET 0 0 0
					CHANNELS 3 Zrotation Yrotation Xrotation
					JOINT RightShoulder
					{
						OFFSET -3.09725 1.62858 -0.14144
CHANNELS 3 Zrotation Xrotation Yrotation
						JOINT RightElbow
						{
OFFSET 0 -4.291040 0.000000
CHANNELS 3 Zrotation Xrotation Yrotation
							JOINT RightWrist
							{
OFFSET 0 -3.227200 -0.000000
CHANNELS 3 Zrotation Xrotation Yrotation
								JOINT rhand
								{
									OFFSET 0 0 0
CHANNELS 3 Zrotation Xrotation Yrotation
									JOINT RFingers
									{
OFFSET 0 -0.543620 -0.000000
CHANNELS 3 Zrotation Xrotation Yrotation
										End Site
										{
OFFSET 0 -0.438280 -0.000000
										}
									}
								}
								JOINT RThumb
								{
OFFSET 0 0.000000 0.000000
CHANNELS 3 Zrotation Xrotation Yrotation
									End Site
									{
OFFSET 0 -0.444970 0.444970
									}
								}
							}
						}
					}
				}
			}
		}
	}
}
MOTION
Frames: 10
Frame Time: 0.008333333333333333
-32.602100 15.741800 3.192100 -174.039000 30.144300 -169.491000 0.000000 0.000000 0.000000 4.349900 -41.457000 -26.910400 0.164100 2.610200 7.195300 1.969500 1.080500 26.248700 14.998900 -19.389500 -75.233500 0.000000 0.000000 0.000000 44.868100 8.853800 10.940900 -0.000700 -0.172000 0.472500 -0.328800 -4.472400 -13.412500 -0.964100 6.251900 -17.517000 -9.245000 -5.209700 18.398800 14.650700 -5.164500 -12.644700 27.148600 2.968100 -24.311800 -7.398000 -2.614900 -14.216900 -10.215100 10.142400 46.670200 -1.020400 3.233200 22.889400 0.000000 -0.000000 0.000000 -26.938900 35.606000 15.285600 21.370000 -32.257700 6.246300 24.898900 12.893600 -24.783400 0.000000 0.000000 0.000000 -7.125000 0.000000 0.000000 -5.118200 56.884000 1.493200 0.000000 -0.000000 0.000000 -48.594300 14.882400 82.253700 -24.036500 -35.202900 -7.727600 -25.135800 -13.333800 17.039000 0.000000 0.000000 0.000000 7.125000 0.000000 -0.000000 2.692400 48.663800 -0.243500
-32.480128 15.699213 2.874907 -173.966312 32.144478 -169.185332 0.000000 0.000000 0.000000 6.772714 -45.848395 -28.575979 0.224535 3.050087 8.418199 2.222859 2.668618 27.513441 14.777320 -19.332864 -74.564889 0.000000 0.000000 0.000000 44.734517 8.992476 12.473759 -0.000863 -0.185936 0.510830 -0.373786 -3.285947 -13.235766 -0.694925 5.301557 -14.776744 -9.147921 -5.011957 17.693905 14.516517 -4.910134 -12.601196 26.581858 2.871995 -23.854328 -7.273196 -2.400758 -14.250712 -9.866826 10.017265 46.486870 -0.893590 3.194496 22.638698 0.000000 0.000000 0.000000 -26.623709 36.042649 14.980624 21.358590 -32.244379 6.240220 25.744726 12.824304 -25.199757 0.000000 0.000000 0.000000 -7.125000 0.000000 0.000000 -4.352406 57.510244 1.334612 0.000000 0.000000 0.000000 -47.988946 14.942413 81.707654 -23.959142 -35.121024 -7.683049 -25.469754 -12.924386 17.466207 0.000000 0.000000 0.000000 7.125000 0.000000 0.000000 2.452223 49.178734 -0.252821
-32.351663 15.660199 2.556550 -173.256659 33.979438 -168.494568 0.000000 0.000000 0.000000 6.731506 -44.536547 -29.176675 0.216784 2.997541 8.271849 1.813110 3.624628 24.527031 14.631048 -19.294297 -74.122693 0.000000 0.000000 0.000000 45.158650 9.273340 13.723202 -0.003556 -0.369022 1.014084 -0.409937 -2.213257 -13.112625 -0.370170 3.878368 -10.738204 -8.610644 -4.895508 17.016381 14.548936 -4.545579 -12.550085 25.942593 2.824705 -23.506041 -7.162245 -2.293210 -14.244452 -9.518132 9.727404 46.338617 -0.804694 3.095628 22.400789 0.000000 0.000000 0.000000 -26.197326 36.076617 15.550442 20.911101 -31.722421 6.004025 26.150142 13.341358 -25.205240 0.000000 0.000000 0.000000 -7.125000 0.000000 0.000000 -3.907719 57.607271 1.207660 0.000000 0.000000 0.000000 -47.437357 15.057813 81.285586 -23.788808 -34.940115 -7.585327 -25.996070 -12.923303 17.138072 0.000000 0.000000 0.000000 7.125000 0.000000 0.000000 1.875377 48.906061 -0.182695
-32.215494 15.623777 2.239444 -172.641745 35.788978 -167.835144 0.000000 0.000000 0.000000 5.940537 -43.006667 -29.396455 0.291264 3.452373 9.542621 1.518954 4.624131 22.264322 14.967572 -19.380157 -75.137941 0.000000 0.000000 0.000000 45.236236 9.224621 14.425264 -0.014908 -0.759330 2.087086 -0.437572 -0.742603 -12.815994 -0.239896 3.149041 -8.694237 -8.331168 -4.711755 16.446759 14.571403 -4.171106 -12.540566 25.537274 2.880638 -23.294723 -7.167933 -2.246131 -14.177291 -9.034731 9.328527 46.237513 -0.647277 2.956246 22.155786 0.000000 0.000000 0.000000 -25.658106 35.892417 16.363783 20.154418 -30.826354 5.611000 26.261549 14.091564 -24.922313 0.000000 0.000000 0.000000 -7.125000 0.000000 0.000000 -3.680311 57.332376 1.112914 0.000000 0.000000 0.000000 -47.070275 15.579946 80.607485 -23.631192 -34.771735 -7.495219 -25.900773 -12.731436 16.767729 0.000000 0.000000 0.000000 7.125000 0.000000 0.000000 1.897487 48.488769 -0.163398
-32.070218 15.588368 1.914051 -172.233891 37.494942 -167.393548 0.000000 0.000000 0.000000 4.271348 -41.667925 -29.247316 0.437594 4.237347 11.746534 1.151373 4.372783 19.254218 15.233241 -19.446276 -75.938228 0.000000 0.000000 0.000000 45.086597 9.165754 15.012605 -0.042274 -1.314030 3.613484 -0.456543 0.580072 -12.579544 -0.183176 2.752838 -7.591607 -8.258256 -4.475568 15.950616 14.606088 -3.784674 -12.518552 25.326171 3.001219 -23.117680 -7.630101 -2.279253 -13.830695 -8.434902 8.874383 46.171127 -0.441526 2.771451 21.676086 0.000000 0.000000 0.000000 -25.232217 35.879674 16.467742 19.566902 -30.116426 5.312556 26.473151 14.747124 -25.075923 0.000000 0.000000 0.000000 -7.125000 0.000000 0.000000 -3.502386 57.543129 1.076380 0.000000 0.000000 0.000000 -46.957368 16.294953 79.690229 -23.456594 -34.584263 -7.395834 -25.193535 -12.429157 17.150713 0.000000 0.000000 0.000000 7.125000 0.000000 0.000000 2.659064 48.793227 -0.249951
-31.923582 15.556672 1.577900 -171.630851 38.985978 -166.974554 0.000000 0.000000 0.000000 2.830023 -41.186019 -28.345530 0.545702 4.732014 13.145977 0.761864 1.404831 16.071532 14.203696 -19.173881 -72.824870 0.000000 0.000000 0.000000 44.799166 8.605713 15.628361 -0.075357 -1.769935 4.870285 -0.419179 1.772780 -11.743764 -0.104862 2.086837 -5.745810 -7.700292 -4.360823 15.627757 14.623449 -3.439011 -12.485460 24.762182 3.016709 -23.040310 -7.996344 -2.292208 -13.758662 -7.904081 8.555611 46.136573 -0.197275 2.620363 21.480113 0.000000 0.000000 0.000000 -24.600597 35.980705 16.067868 19.090196 -29.530561 5.075228 26.922191 15.525364 -25.719489 0.000000 0.000000 0.000000 -7.125000 0.000000 0.000000 -3.240441 58.330049 1.057297 0.000000 0.000000 0.000000 -46.782430 16.848023 79.021176 -23.232979 -34.342538 -7.269288 -29.505412 -10.940417 17.110567 0.000000 0.000000 0.000000 7.125000 0.000000 0.000000 -1.591728 49.452615 0.174760
-31.776252 15.530072 1.229327 -171.098890 40.342621 -166.622127 0.000000 0.000000 0.000000 1.528199 -41.076957 -28.181915 0.774878 5.618495 15.681903 0.347010 -2.772003 12.778910 12.705008 -18.670763 -68.204489 0.000000 0.000000 0.000000 44.614123 8.511728 16.271482 -0.136295 -2.366299 6.519672 -0.386694 2.522745 -11.147326 -0.045509 1.362044 -3.745812 -6.784998 -4.403618 15.426304 14.443552 -3.290951 -12.565033 23.735205 2.847291 -23.097165 -8.035579 -2.276848 -13.569259 -7.347042 8.136231 46.124892 -0.004262 2.489298 21.308289 0.000000 0.000000 0.000000 -23.522441 36.329536 15.347030 18.717778 -29.066079 4.893169 26.750288 15.133242 -25.519444 0.000000 0.000000 0.000000 -7.125000 0.000000 0.000000 -3.357572 58.077940 1.074407 0.000000 0.000000 0.000000 -46.299039 17.349340 78.906007 -23.030375 -34.121946 -7.155433 -28.752648 -11.296189 17.626908 0.000000 0.000000 0.000000 7.125000 0.000000 0.000000 -0.761995 49.898230 0.086949
-31.619669 15.510297 0.879306 -171.179023 41.720794 -166.718354 0.000000 0.000000 0.000000 -0.186785 -40.526044 -27.697377 1.026395 6.411559 17.994758 0.029862 -7.724034 11.628112 13.361336 -18.908100 -70.243574 0.000000 0.000000 0.000000 43.998248 8.663438 16.720558 -0.247084 -3.173642 8.764602 -0.355257 2.701997 -10.646590 -0.037032 1.208802 -3.324009 -6.377357 -4.382103 15.219104 14.156284 -3.263048 -12.621819 22.958320 2.669412 -23.028465 -8.081201 -2.374895 -13.511532 -6.956726 7.657436 46.146824 0.091631 2.309469 21.234738 0.000000 0.000000 0.000000 -22.520908 36.339505 14.978754 18.263624 -28.492667 4.674761 26.403117 15.086168 -25.231358 0.000000 0.000000 0.000000 -7.125000 0.000000 0.000000 -3.637079 57.692317 1.131109 0.000000 0.000000 0.000000 -45.795232 17.913392 78.220350 -22.699597 -33.757897 -6.971005 -26.309417 -11.499167 18.478849 0.000000 0.000000 0.000000 7.125000 0.000000 0.000000 1.831524 50.415571 -0.247278
-31.449059 15.504054 0.534948 -171.946247 43.101679 -167.351299 0.000000 0.000000 0.000000 -2.643760 -39.015935 -27.627281 1.420511 7.529813 21.298329 0.017950 -8.780255 12.867788 14.069142 -19.130006 -72.411487 0.000000 0.000000 0.000000 42.299948 7.982798 16.262659 -0.441972 -4.238323 11.752063 -0.273849 3.087495 -9.288939 -0.101708 2.021925 -5.567510 -6.552767 -4.290673 15.069651 13.768835 -3.366467 -12.628155 22.496943 2.493589 -22.838970 -8.260364 -2.519527 -13.703388 -6.551703 7.135676 46.101572 0.209828 2.072215 21.191982 0.000000 0.000000 0.000000 -21.648505 35.968074 14.985629 17.810437 -27.913229 4.460406 26.394137 15.999409 -25.327308 0.000000 0.000000 0.000000 -7.125000 0.000000 0.000000 -3.682924 57.792023 1.154359 0.000000 0.000000 0.000000 -45.207124 18.658682 76.611511 -22.227101 -33.232088 -6.710131 -25.399355 -11.222699 18.499602 0.000000 0.000000 0.000000 7.125000 0.000000 0.000000 2.740513 50.283985 -0.357342
-31.262842 15.514544 0.201514 -173.343893 44.430198 -168.534922 0.000000 0.000000 0.000000 -5.636371 -37.665874 -26.160521 1.652374 8.099148 23.016598 0.076606 -10.044067 15.467711 14.745890 -19.324128 -74.469623 0.000000 0.000000 0.000000 40.139318 7.218579 15.372604 -0.760210 -5.549144 15.486356 -0.189711 2.810391 -7.719183 -0.088871 1.913339 -5.266525 -7.440923 -4.129124 14.958704 13.274511 -3.619899 -12.647978 22.443307 2.355151 -22.594405 -8.412661 -2.756483 -13.714476 -6.122593 6.419109 46.040236 0.294478 1.780030 21.081691 0.000000 0.000000 0.000000 -20.662613 35.689318 14.709754 17.485573 -27.493274 4.309226 25.979962 16.593735 -25.188753 0.000000 0.000000 0.000000 -7.125000 0.000000 0.000000 -4.088962 57.551626 1.257539 0.000000 0.000000 0.000000 -44.806458 19.789859 74.997829 -21.983619 -32.958430 -6.576919 -25.724111 -11.125924 17.782747 0.000000 0.000000 0.000000 7.125000 0.000000 0.000000 2.267819 49.562491 -0.256516
